SplineFontDB: 3.0
FontName: Renner-it-BookItalic
FullName: Renner* Book Italic
FamilyName: Renner*
Weight: Book
Copyright: This typeface is licensed under the SIL open font license.
UComments: "2016-6-10: Created with FontForge (http://fontforge.org)"
Version: 002.000
ItalicAngle: -10
UnderlinePosition: -100
UnderlineWidth: 50
Ascent: 800
Descent: 200
InvalidEm: 0
LayerCount: 2
Layer: 0 0 "Back" 1
Layer: 1 0 "Fore" 0
XUID: [1021 31 -699969567 16188444]
FSType: 0
OS2Version: 0
OS2_WeightWidthSlopeOnly: 0
OS2_UseTypoMetrics: 1
CreationTime: 1465610489
ModificationTime: 1468104547
PfmFamily: 33
TTFWeight: 400
TTFWidth: 5
LineGap: 100
VLineGap: 0
OS2TypoAscent: 800
OS2TypoAOffset: 0
OS2TypoDescent: -200
OS2TypoDOffset: 0
OS2TypoLinegap: 100
OS2WinAscent: 900
OS2WinAOffset: 0
OS2WinDescent: 300
OS2WinDOffset: 0
HheadAscent: 900
HheadAOffset: 0
HheadDescent: -200
HheadDOffset: 0
OS2CapHeight: 700
OS2XHeight: 460
OS2Vendor: 'PfEd'
Lookup: 258 0 0 "Lets get our kern on" { "kernin like nobodys business" [150,0,4] } ['kern' ('DFLT' <'dflt' > 'latn' <'dflt' > ) ]
MarkAttachClasses: 1
DEI: 91125
KernClass2: 15 14 "kernin like nobodys business"
 5 A L M
 7 D G O Q
 5 F P Y
 5 K X Z
 1 T
 1 U
 3 V W
 9 a c g q s
 7 b e o p
 7 d i j l
 3 f t
 5 h m n
 5 k x z
 7 r v w y
 3 A M
 7 C G O Q
 1 T
 1 U
 5 V W Y
 3 X Z
 9 m n p r s
 11 b h i j k l
 13 c d e g o q a
 3 f t
 7 u v w y
 3 x z
 12 period comma
<<<<<<< HEAD

StartChar: H
Encoding: 72 72 0
Width: 715
VWidth: 0
Flags: HMW
LayerCount: 2
Fore
SplineSet
187 340 m 5
 201 420 l 5
 681 420 l 5
 667 340 l 5
 187 340 l 5
673 700 m 5
 758 700 l 5
 635 0 l 5
 550 0 l 5
 673 700 l 5
203 700 m 1
 288 700 l 1
 165 0 l 1
 80 0 l 1
 203 700 l 1
EndSplineSet
EndChar

StartChar: O
Encoding: 79 79 1
Width: 800
VWidth: 0
Flags: HMW
LayerCount: 2
Fore
SplineSet
181.8515625 284.608398438 m 0
 181.8515625 156.686523438 272.897581546 70 412 70 c 0
 571.209675281 70 742.109375 206.71875 742.109375 415.987304688 c 4
 742.109375 539.129882812 652.243164062 630 513 630 c 4
 353.651367188 630 181.8515625 492.997070312 181.8515625 284.608398438 c 0
525 710 m 0
 705.657491465 710 828.280871952 591.579043815 828.280871952 419.326400954 c 0
 828.280871952 165.7082291 625.55488572 -10 398 -10 c 0
 217.475395267 -10 95.6826477176 108.246805796 95.6826477176 280.293573388 c 0
 95.6826477176 534.026968249 307.31072675 710 525 710 c 0
EndSplineSet
EndChar

StartChar: I
Encoding: 73 73 2
Width: 235
VWidth: 0
Flags: HMW
LayerCount: 2
Fore
SplineSet
198 700 m 5
 283 700 l 5
 160 0 l 5
 75 0 l 5
 198 700 l 5
EndSplineSet
EndChar

StartChar: C
Encoding: 67 67 3
Width: 685
VWidth: 0
Flags: HMW
LayerCount: 2
Fore
SplineSet
181.833984375 293.330078125 m 4
 181.833984375 160.559570312 271.792596886 70 402 70 c 0
 501 70 586 112 646 174 c 1
 627 67 l 1
 559 15 490 -10 388 -10 c 0
 216.407858068 -10 95.6673238046 108.132196278 95.6673238046 280.043418802 c 0
 95.6673238046 532.837326661 297.469250616 710 515 710 c 0
 617 710 677 685 727 633 c 1
 708 526 l 1
 670 588 600 630 501 630 c 4
 331.823038439 630 181.833984375 480.744140625 181.833984375 293.330078125 c 4
EndSplineSet
EndChar

StartChar: E
Encoding: 69 69 4
Width: 550
VWidth: 0
Flags: HMW
LayerCount: 2
Fore
SplineSet
127 0 m 5
 141 80 l 5
 494 80 l 5
 480 0 l 5
 127 0 l 5
236 620 m 5
 250 700 l 5
 603 700 l 5
 589 620 l 5
 236 620 l 5
187 340 m 5
 201 420 l 5
 534 420 l 5
 520 340 l 5
 187 340 l 5
203 700 m 5
 288 700 l 5
 165 0 l 5
 80 0 l 5
 203 700 l 5
EndSplineSet
EndChar

StartChar: F
Encoding: 70 70 6
Width: 490
VWidth: 0
Flags: HMW
LayerCount: 2
Fore
SplineSet
236 620 m 1
 250 700 l 1
 563 700 l 5
 549 620 l 1
 236 620 l 1
187 340 m 1
 201 420 l 1
 504 420 l 1
 490 340 l 1
 187 340 l 1
203 700 m 1
 288 700 l 1
 165 0 l 1
 80 0 l 1
 203 700 l 1
EndSplineSet
EndChar

StartChar: G
Encoding: 71 71 7
Width: 785
VWidth: 0
Flags: HMW
LayerCount: 2
Fore
SplineSet
479 280 m 1
 493 360 l 1
 723 360 l 1
 704 280 l 1
 479 280 l 1
803 360 m 1
 766 151 622 -10 398 -10 c 0
 217.475395267 -10 95.6826171875 128.247070312 95.6826171875 290.293945312 c 0
 95.6826171875 544.02734375 287.310546875 710 515 710 c 1
 511 630 l 1
 341.651107936 630 181.8515625 501.997070312 181.8515625 303.608398438 c 0
 181.8515625 170.686523438 272.897581546 70 412 70 c 4
 595 70 704 217 713 360 c 5
 803 360 l 1
730 511 m 1
 692 585 618 630 511 630 c 1
 515 710 l 1
 644 710 752 658 795 561 c 1
 730 511 l 1
EndSplineSet
EndChar

StartChar: T
Encoding: 84 84 8
Width: 465
VWidth: 0
Flags: HMW
LayerCount: 2
Fore
SplineSet
119 620 m 1
 133 700 l 1
 578 700 l 5
 564 620 l 5
 119 620 l 1
313 700 m 1
 398 700 l 1
 275 0 l 1
 190 0 l 1
 313 700 l 1
EndSplineSet
EndChar

StartChar: L
Encoding: 76 76 9
Width: 450
VWidth: 0
Flags: HMW
LayerCount: 2
Fore
SplineSet
127 0 m 5
 141 80 l 5
 454 80 l 5
 440 0 l 5
 127 0 l 5
203 700 m 1
 288 700 l 1
 165 0 l 1
 80 0 l 1
 203 700 l 1
EndSplineSet
EndChar

StartChar: D
Encoding: 68 68 10
Width: 680
VWidth: 0
Flags: HMW
LayerCount: 2
Fore
SplineSet
127 0 m 1
 141 80 l 1
 304 80 l 1
 290 0 l 1
 127 0 l 1
236 620 m 1
 250 700 l 1
 413 700 l 1
 399 620 l 1
 236 620 l 1
203 700 m 1
 290 700 l 1
 167 0 l 1
 80 0 l 1
 203 700 l 1
304 80 m 1
 474.367728437 80 622.439926212 209.660714786 622.439926212 408.928082367 c 0
 622.439926212 538.30032594 537.062381378 620 399 620 c 1
 413 700 l 5
 582.554870263 700 708.583984375 580.767578125 708.583984375 412.078125 c 4
 708.583984375 167.5234375 538.681635504 0 290 0 c 1
 304 80 l 1
EndSplineSet
EndChar

StartChar: Q
Encoding: 81 81 11
Width: 800
VWidth: 0
Flags: HMW
LayerCount: 2
Fore
SplineSet
181.851081007 293.608798807 m 0
 181.851081007 160.686167678 272.897581546 70 412 70 c 0
 571.209675281 70 742.109375 197.71875 742.109375 415.987304688 c 0
 742.109375 539.129882812 650.243109258 630 511 630 c 0
 351.651107936 630 181.851081007 491.996884964 181.851081007 293.608798807 c 0
525 710 m 0
 705.657491465 710 828.280871952 591.579043815 828.280871952 419.326400954 c 0
 828.280871952 165.7082291 625.55488572 -10 398 -10 c 0
 217.475395267 -10 95.6826477176 108.246805796 95.6826477176 280.293573388 c 0
 95.6826477176 534.026968249 307.31072675 710 525 710 c 0
452 300 m 1
 557 300 l 1
 794 0 l 1
 689 0 l 1
 452 300 l 1
EndSplineSet
EndChar

StartChar: A
Encoding: 65 65 12
Width: 660
VWidth: 0
Flags: HMW
LayerCount: 2
Fore
SplineSet
184 210 m 1
 198 290 l 1
 568 290 l 1
 554 210 l 1
 184 210 l 1
405 625 m 1
 460 735 l 1
 655 0 l 1
 560 0 l 1
 405 625 l 1
460 735 m 1
 466 605 l 5
 101 0 l 5
 5 0 l 1
 460 735 l 1
EndSplineSet
EndChar

StartChar: R
Encoding: 82 82 13
Width: 570
VWidth: 0
Flags: HMW
LayerCount: 2
Fore
SplineSet
319 280 m 1
 333 360 l 1
 418.718411656 360 509.456054688 412.067382812 509.456054688 516.893554688 c 0
 509.456054688 585.161132812 459.084012854 620 379 620 c 1
 393 700 l 1
 513.691558221 700 597.6171875 625.259765625 597.6171875 519.360351562 c 4
 597.6171875 362.819335938 461.474923651 280 319 280 c 1
273 350 m 5
 372 350 l 1
 550 0 l 1
 451 0 l 5
 273 350 l 5
176 280 m 1
 190 360 l 1
 333 360 l 1
 319 280 l 1
 176 280 l 1
236 620 m 1
 250 700 l 1
 393 700 l 1
 379 620 l 1
 236 620 l 1
203 700 m 1
 288 700 l 1
 165 0 l 1
 80 0 l 1
 203 700 l 1
EndSplineSet
EndChar

StartChar: V
Encoding: 86 86 14
Width: 660
VWidth: 0
Flags: HMW
LayerCount: 2
Fore
SplineSet
378 75 m 1
 324 -35 l 1
 128 700 l 1
 223 700 l 1
 378 75 l 1
324 -35 m 1
 308 85 l 5
 683 700 l 1
 778 700 l 1
 324 -35 l 1
EndSplineSet
EndChar

StartChar: M
Encoding: 77 77 15
Width: 940
VWidth: 0
Flags: HMW
LayerCount: 2
Fore
SplineSet
285 545 m 5
 315 735 l 5
 539 75 l 1
 486 -25 l 1
 285 545 l 5
315 735 m 5
 329 535 l 5
 145 0 l 1
 50 0 l 1
 315 735 l 5
823 515 m 1
 897 735 l 1
 910 0 l 1
 817 0 l 1
 823 515 l 1
897 735 m 1
 867 544 l 1
 486 -25 l 1
 469 85 l 1
 897 735 l 1
EndSplineSet
EndChar

StartChar: W
Encoding: 87 87 16
Width: 990
VWidth: 0
Flags: HMW
LayerCount: 2
Fore
SplineSet
755 95 m 1
 699 -35 l 1
 565 595 l 1
 625 735 l 1
 755 95 l 1
699 -35 m 1
 687 105 l 5
 1008 700 l 1
 1103 700 l 1
 699 -35 l 1
337 95 m 1
 279 -35 l 1
 133 700 l 1
 228 700 l 1
 337 95 l 1
279 -35 m 1
 265 95 l 1
 625 735 l 1
 635 590 l 1
 279 -35 l 1
EndSplineSet
EndChar

StartChar: N
Encoding: 78 78 17
Width: 765
VWidth: 0
Flags: HMW
LayerCount: 2
Fore
SplineSet
187 620 m 5
 205 735 l 1
 702 80 l 1
 684 -35 l 1
 187 620 l 5
728 700 m 1
 813 700 l 1
 684 -35 l 1
 618 75 l 1
 728 700 l 1
205 735 m 1
 270 625 l 1
 160 0 l 1
 75 0 l 1
 205 735 l 1
EndSplineSet
EndChar

StartChar: a
Encoding: 97 97 18
Width: 570
VWidth: 0
Flags: HMW
LayerCount: 2
Fore
SplineSet
501 460 m 5
 581 460 l 5
 500 0 l 1
 420 0 l 1
 501 460 l 5
346 470 m 0
 443.480606723 470 502.879486382 394.614393155 502.879486382 293.942209056 c 4
 502.879486382 114.036892013 389.821995506 -10 261 -10 c 0
 151.103672398 -10 71.3520430362 60.3376292256 71.3520430362 178.587836621 c 0
 71.3520430362 357.975555532 210.565381051 470 346 470 c 0
155.515625 193.717773438 m 0
 155.515625 101.260742188 209.552734375 65 274 65 c 0
 360.37109375 65 464.270507812 145.838867188 464.270507812 271.279296875 c 0
 464.270507812 355.006835938 404.804408584 395 343 395 c 0
 250.571651562 395 155.515625 311.33203125 155.515625 193.717773438 c 0
EndSplineSet
EndChar

StartChar: X
Encoding: 88 88 19
Width: 555
VWidth: 0
Flags: HMW
LayerCount: 2
Fore
SplineSet
158 700 m 1
 248 700 l 5
 545 0 l 1
 450 0 l 1
 158 700 l 1
558 700 m 1
 653 700 l 1
 105 0 l 1
 10 0 l 1
 558 700 l 1
EndSplineSet
EndChar

StartChar: K
Encoding: 75 75 20
Width: 560
VWidth: 0
Flags: HMW
LayerCount: 2
Fore
SplineSet
192 380 m 5
 297 380 l 5
 555 0 l 1
 450 0 l 1
 192 380 l 5
558 700 m 1
 663 700 l 1
 300 370 l 5
 195 370 l 5
 558 700 l 1
198 700 m 1
 283 700 l 1
 160 0 l 1
 75 0 l 1
 198 700 l 1
EndSplineSet
EndChar

StartChar: Y
Encoding: 89 89 21
Width: 565
VWidth: 0
Flags: HMW
LayerCount: 2
Fore
SplineSet
301 360 m 1
 386 360 l 1
 323 0 l 1
 238 0 l 1
 301 360 l 1
128 700 m 1
 217 700 l 5
 364 310 l 5
 289 280 l 1
 128 700 l 1
588 700 m 1
 683 700 l 1
 364 280 l 1
 295 310 l 1
 588 700 l 1
EndSplineSet
EndChar

StartChar: B
Encoding: 66 66 22
Width: 550
VWidth: 0
Flags: HMW
LayerCount: 2
Fore
SplineSet
315 370 m 1
 324 420 l 1
 419.137904039 420 477.156556382 459.310146017 477.156556382 542.324012762 c 0
 477.156556382 593.653245517 438.225796326 620 359 620 c 1
 373 700 l 1
 493.672664586 700 564.007924803 647.265576375 564.007924803 558.223539285 c 0
 564.007924803 413.017937166 457.963231717 370 315 370 c 1
270 0 m 1
 284 80 l 1
 379.718411656 80 462.455591262 132.067245653 462.455591262 236.893626884 c 0
 462.455591262 305.161510981 410.084012854 340 330 340 c 1
 329 390 l 1
 450.1640625 390 547.49609375 344.890625 547.49609375 232.380859375 c 0
 547.49609375 76.9580078125 411.444317713 0 270 0 c 1
127 0 m 1
 141 80 l 1
 284 80 l 1
 270 0 l 1
 127 0 l 1
236 620 m 1
 250 700 l 1
 373 700 l 1
 359 620 l 1
 236 620 l 1
187 340 m 1
 201 420 l 1
 344 420 l 1
 330 340 l 1
 187 340 l 1
203 700 m 1
 290 700 l 5
 167 0 l 5
 80 0 l 1
 203 700 l 1
EndSplineSet
EndChar

StartChar: Z
Encoding: 90 90 23
Width: 525
VWidth: 0
Flags: HMW
LayerCount: 2
Fore
SplineSet
10 0 m 1
 94 80 l 1
 514 80 l 1
 500 0 l 1
 10 0 l 1
139 620 m 1
 153 700 l 1
 643 700 l 1
 559 620 l 1
 139 620 l 1
543 700 m 1
 643 700 l 1
 110 0 l 5
 10 0 l 1
 543 700 l 1
EndSplineSet
EndChar

StartChar: o
Encoding: 111 111 24
Width: 546
VWidth: 0
Flags: HMW
LayerCount: 2
Fore
SplineSet
356 470 m 0
 475.286497213 470 556.315976459 391.14369766 556.315976459 276.893432666 c 0
 556.315976459 107.977302359 415.042583924 -10 271 -10 c 0
 151.848321828 -10 71.6462250308 68.6781543779 71.6462250308 182.719321941 c 0
 71.6462250308 351.749657682 211.822342507 470 356 470 c 0
153.884765625 185.752929688 m 4
 153.884765625 120.012695312 205.11328125 65 274 65 c 4
 370.91796875 65 474.07421875 147.060546875 474.07421875 273.8203125 c 4
 474.07421875 346.793945312 422.03125 395 353 395 c 0
 255.9375 395 153.884765625 312.631835938 153.884765625 185.752929688 c 4
EndSplineSet
EndChar

StartChar: J
Encoding: 74 74 25
Width: 260
VWidth: 0
Flags: HMW
LayerCount: 2
Fore
SplineSet
159 -60 m 1
 81 -50 l 1
 213 700 l 1
 293 700 l 1
 159 -60 l 1
-75 -104 m 1
 -65 -127 -39 -140 -3 -140 c 4
 27 -140 69 -116 81 -50 c 1
 159 -60 l 1
 140 -169 72 -220 -22 -220 c 4
 -75 -220 -120 -190 -131 -170 c 1
 -75 -104 l 1
EndSplineSet
EndChar

StartChar: t
Encoding: 116 116 26
Width: 240
VWidth: 0
Flags: HMW
LayerCount: 2
Fore
SplineSet
86 460 m 5
 316 460 l 5
 303 385 l 5
 73 385 l 5
 86 460 l 5
189 620 m 1
 269 620 l 1
 160 0 l 1
 80 0 l 1
 189 620 l 1
EndSplineSet
EndChar

StartChar: d
Encoding: 100 100 27
Width: 570
VWidth: 0
Flags: HMW
LayerCount: 2
Fore
SplineSet
558 780 m 5
 638 780 l 5
 500 0 l 5
 420 0 l 5
 558 780 l 5
346 470 m 4
 443.480606723 470 502.879486382 404.614393155 502.879486382 293.942209056 c 4
 502.879486382 114.036892013 389.821995506 -10 261 -10 c 4
 151.103672398 -10 71.3520430362 60.3376292256 71.3520430362 178.587836621 c 4
 71.3520430362 357.975555532 210.565381051 470 346 470 c 4
155.515625 193.717773438 m 4
 155.515625 101.260742188 209.552734375 65 274 65 c 4
 360.37109375 65 464.270507812 145.838867188 464.270507812 271.279296875 c 4
 464.270507812 355.006835938 404.804408584 395 343 395 c 4
 250.571651562 395 155.515625 311.33203125 155.515625 193.717773438 c 4
EndSplineSet
EndChar

StartChar: l
Encoding: 108 108 28
Width: 230
VWidth: 0
Flags: HMW
LayerCount: 2
Fore
SplineSet
213 780 m 5
 293 780 l 5
 155 0 l 5
 75 0 l 5
 213 780 l 5
EndSplineSet
EndChar

StartChar: i
Encoding: 105 105 29
Width: 260
VWidth: 0
Flags: HMW
LayerCount: 2
Fore
SplineSet
190 650 m 4
 190 680 215 705 245 705 c 4
 275 705 300 680 300 650 c 4
 300 620 275 595 245 595 c 4
 215 595 190 620 190 650 c 4
169 460 m 1
 253 460 l 1
 172 0 l 1
 88 0 l 1
 169 460 l 1
EndSplineSet
EndChar

StartChar: r
Encoding: 114 114 30
Width: 343
VWidth: 0
Flags: HMW
LayerCount: 2
Fore
SplineSet
236 460 m 1
 155 0 l 1
 75 0 l 1
 156 460 l 1
 236 460 l 1
360 372 m 1
 341 388 328 395 302 395 c 0
 242 395 216 346 204 280 c 1
 168 280 l 1
 187 389 270 470 335 470 c 0
 368 470 395 463 415 438 c 1
 360 372 l 1
EndSplineSet
EndChar

StartChar: c
Encoding: 99 99 31
Width: 478
VWidth: 0
Flags: HMW
LayerCount: 2
Fore
SplineSet
148.884765625 190.752929688 m 0
 148.884765625 123.012695312 193.11328125 68 277 68 c 4
 351 68 425 101 454 146 c 1
 437 49 l 1
 399 11 329 -10 266 -10 c 0
 146.848321828 -10 66.646484375 73.677734375 66.646484375 187.719726562 c 0
 66.646484375 356.75 196.822342507 470 351 470 c 0
 414 470 476 448 501 411 c 1
 483 314 l 1
 470 359 411 394 337 394 c 0
 239.9375 394 148.884765625 317.631835938 148.884765625 190.752929688 c 0
EndSplineSet
EndChar

StartChar: b
Encoding: 98 98 32
Width: 570
VWidth: 0
Flags: HMW
LayerCount: 2
Fore
SplineSet
288 780 m 1
 150 0 l 1
 70 0 l 1
 208 780 l 1
 288 780 l 1
305 -10 m 4
 207.700614061 -10 149.057349651 55.1427233176 149.057349651 165.441027072 c 4
 149.057349651 345.413303782 261.01337276 470 390 470 c 4
 500.024036795 470 580.608011538 399.498798771 580.608011538 280.999717896 c 4
 580.608011538 101.704896651 440.299245022 -10 305 -10 c 4
498.442382812 276.865234375 m 4
 498.442382812 359.586914062 441.572912019 395 367 395 c 4
 280.509200867 395 187.691488642 319.832023756 187.691488642 194.331200015 c 4
 187.691488642 110.850719543 246.291482642 65 308 65 c 4
 400.29677453 65 498.442382812 149.337890625 498.442382812 276.865234375 c 4
EndSplineSet
EndChar

StartChar: p
Encoding: 112 112 33
Width: 570
VWidth: 0
Flags: HMW
LayerCount: 2
Fore
SplineSet
305 -10 m 4
 207.700614061 -10 149.057349651 55.1427233176 149.057349651 165.441027072 c 4
 149.057349651 345.413303782 261.01337276 470 390 470 c 4
 500.024036795 470 580.608011538 399.498798771 580.608011538 280.999717896 c 4
 580.608011538 101.704896651 440.299245022 -10 305 -10 c 4
498.442382812 276.865234375 m 4
 498.442382812 359.586914062 441.572912019 395 367 395 c 4
 280.509200867 395 187.691488642 319.832023756 187.691488642 194.331200015 c 4
 187.691488642 110.850719543 246.291482642 65 308 65 c 4
 400.29677453 65 498.442382812 149.337890625 498.442382812 276.865234375 c 4
111 -220 m 1
 31 -220 l 1
 151 460 l 1
 231 460 l 1
 111 -220 l 1
EndSplineSet
EndChar

StartChar: q
Encoding: 113 113 34
Width: 570
VWidth: 0
Flags: HMW
LayerCount: 2
Fore
SplineSet
346 470 m 0
 443.480606723 470 502.879486382 404.614393155 502.879486382 293.942209056 c 0
 502.879486382 114.036892013 389.821995506 -10 261 -10 c 0
 151.103672398 -10 71.3520430362 60.3376292256 71.3520430362 178.587836621 c 0
 71.3520430362 357.975555532 210.565381051 470 346 470 c 0
155.515625 193.717773438 m 0
 155.515625 101.260742188 209.552734375 65 274 65 c 0
 360.37109375 65 464.270507812 144.838867188 464.270507812 270.279296875 c 4
 464.270507812 354.006835938 404.804408584 395 343 395 c 0
 250.571651562 395 155.515625 311.33203125 155.515625 193.717773438 c 0
381 -220 m 1
 501 460 l 1
 581 460 l 1
 461 -220 l 1
 381 -220 l 1
EndSplineSet
EndChar

StartChar: h
Encoding: 104 104 35
Width: 525
VWidth: 0
Flags: HMW
LayerCount: 2
Fore
SplineSet
501 290 m 1
 450 0 l 1
 370 0 l 1
 419 280 l 1
 501 290 l 1
293 780 m 1
 155 0 l 1
 75 0 l 1
 213 780 l 1
 293 780 l 1
501 290 m 1
 419 280 l 1
 421.213763665 292.942002964 423.325195312 319.811523438 423.325195312 330.59765625 c 4
 423.325195312 373.151367188 395.931181676 395 342 395 c 0
 272 395 216 346 204 280 c 1
 168 280 l 1
 187 389 280 470 375 470 c 0
 455.905965827 470 505.624304155 425.757086572 505.624304155 339.124330798 c 0
 505.624304155 324.032674603 504.115523343 307.65463228 501 290 c 1
EndSplineSet
EndChar

StartChar: n
Encoding: 110 110 36
Width: 525
VWidth: 0
Flags: HMW
LayerCount: 2
Fore
SplineSet
501 290 m 5
 450 0 l 5
 370 0 l 5
 419 280 l 5
 501 290 l 5
236 460 m 5
 155 0 l 5
 75 0 l 5
 156 460 l 5
 236 460 l 5
501 290 m 5
 419 280 l 5
 421.213763665 292.942002964 424.325195312 314.811523438 424.325195312 325.59765625 c 4
 424.325195312 378.151367188 395.931181676 395 342 395 c 4
 272 395 216 346 204 280 c 5
 168 280 l 5
 187 389 280 470 375 470 c 4
 455.905965827 470 505.624304155 425.757086572 505.624304155 339.124330798 c 4
 505.624304155 324.032674603 504.115523343 307.65463228 501 290 c 5
EndSplineSet
EndChar

StartChar: m
Encoding: 109 109 37
Width: 780
VWidth: 0
Flags: HMW
LayerCount: 2
Fore
SplineSet
756 290 m 1
 705 0 l 1
 625 0 l 1
 674 280 l 1
 756 290 l 1
756 290 m 1
 674 280 l 1
 676.783686731 296.273860888 680.283203125 320.8515625 680.283203125 333.712890625 c 0
 680.283203125 375.9140625 668.08203125 395 617 395 c 0
 537 395 491 346 479 280 c 1
 433 280 l 1
 452 389 545 470 640 470 c 0
 718.951500127 470 761.297239951 427.868841916 761.297239951 345.328519604 c 0
 761.297239951 328.550518553 759.54756313 310.102857736 756 290 c 1
481 290 m 1
 430 0 l 1
 350 0 l 1
 399 280 l 1
 481 290 l 1
236 460 m 1
 155 0 l 1
 75 0 l 1
 156 460 l 1
 236 460 l 1
481 290 m 1
 399 280 l 1
 401.783686731 296.273860888 405.283203125 320.8515625 405.283203125 333.712890625 c 4
 405.283203125 375.9140625 393.08203125 395 342 395 c 0
 262 395 216 346 204 280 c 1
 168 280 l 1
 187 389 270 470 365 470 c 0
 443.951500127 470 486.297239951 427.868841916 486.297239951 345.328519604 c 0
 486.297239951 328.550518553 484.54756313 310.102857736 481 290 c 1
EndSplineSet
EndChar

StartChar: k
Encoding: 107 107 38
Width: 440
VWidth: 0
Flags: W
HStem: 0 21G<70 153.538 327.259 440> 440 20G<366.474 501> 760 20G<204.462 288>
DStem2: 158 270 268 270 0.774994 0.631969<85.2493 300.648> 268 270 168 270 0.53728 -0.843404<0 266.403>
LayerCount: 2
Fore
SplineSet
168 270 m 1
 268 270 l 1
 440 0 l 1
 340 0 l 1
 168 270 l 1
391 460 m 5
 501 460 l 1
 268 270 l 1
 158 270 l 5
 391 460 l 5
208 780 m 1
 288 780 l 1
 150 0 l 1
 70 0 l 1
 208 780 l 1
EndSplineSet
EndChar

StartChar: u
Encoding: 117 117 39
Width: 525
VWidth: 0
Flags: HMW
LayerCount: 2
Fore
SplineSet
104.624023438 170 m 5
 155.624023438 460 l 5
 235.624023438 460 l 5
 186.624023438 180 l 5
 104.624023438 170 l 5
369.624023438 0 m 5
 450.624023438 460 l 5
 530.624023438 460 l 5
 449.624023438 0 l 5
 369.624023438 0 l 5
104.624023438 170 m 5
 186.624023438 180 l 5
 184.41015625 167.057617188 181.298828125 145.188476562 181.298828125 134.40234375 c 4
 181.298828125 81.8486328125 209.692382812 65 263.624023438 65 c 4
 333.624023438 65 389.624023438 114 401.624023438 180 c 5
 437.624023438 180 l 5
 418.624023438 71 325.624023438 -10 230.624023438 -10 c 4
 149.717773438 -10 100 34.2431640625 100 120.875976562 c 4
 100 135.967773438 101.508789062 152.345703125 104.624023438 170 c 5
EndSplineSet
EndChar

StartChar: e
Encoding: 101 101 40
Width: 515
VWidth: 0
Flags: HMW
LayerCount: 2
Fore
SplineSet
76 230 m 1
 113 270 l 1
 184 270 l 1
 167 230 l 1
 76 230 l 1
153 210 m 1
 165 278 l 1
 508 278 l 1
 516 210 l 1
 153 210 l 1
516 210 m 1
 439 250 l 1
 444.434164903 261.955878774 447.68359375 285.33203125 447.68359375 297.950195312 c 0
 447.68359375 363.0859375 394.395010585 400 334 400 c 4
 254 400 179 340 164 260 c 1
 76 230 l 1
 101 369 201 470 346 470 c 0
 448.094233715 470 526.322081826 392.341676443 526.322081826 290.745400718 c 0
 526.322081826 265.235579559 521.879775109 233.519100436 516 210 c 1
76 230 m 1
 157 230 l 1
 154.154223769 214.123564187 152.76661583 199.301496216 152.76661583 185.574116287 c 0
 152.76661583 107.649799972 191.48046875 65 268 65 c 0
 335 65 391 102 431 152 c 5
 491 107 l 1
 433 37 374 -10 255 -10 c 0
 141.146484375 -10 71.2099573146 66.5926039358 71.2099573146 178.173461866 c 0
 71.2099573146 194.724415367 72.7707173347 212.045188381 76 230 c 1
EndSplineSet
EndChar

StartChar: g
Encoding: 103 103 41
Width: 570
VWidth: 0
Flags: HMW
LayerCount: 2
Fore
SplineSet
346 470 m 0
 443.480606723 470 502.879486382 404.614393155 502.879486382 293.942209056 c 0
 502.879486382 114.036892013 389.821995506 -10 261 -10 c 0
 151.103672398 -10 71.3520430362 60.3376292256 71.3520430362 178.587836621 c 0
 71.3520430362 357.975555532 210.565381051 470 346 470 c 0
155.515625 193.717773438 m 0
 155.515625 101.260742188 209.552734375 65 274 65 c 0
 360.37109375 65 464.270507812 144.838867188 464.270507812 270.279296875 c 4
 464.270507812 354.006835938 404.804408584 395 343 395 c 0
 250.571651562 395 155.515625 311.33203125 155.515625 193.717773438 c 0
39 -30 m 1
 120 -30 l 1
 118.762352877 -36.8070591775 118.152306126 -43.5396572938 118.152306126 -50.1407450758 c 0
 118.152306126 -107.542596338 149.282226562 -155 235 -155 c 0
 305 -155 402 -106 422 10 c 1
 502 10 l 1
 474 -149 351 -230 231 -230 c 0
 110.655672539 -230 35.6072110684 -165.632190436 35.6072110684 -67.3575619193 c 0
 35.6072110684 -55.3895630542 36.7202287161 -42.9187039421 39 -30 c 1
422 10 m 1
 501 460 l 1
 581 460 l 1
 502 10 l 1
 422 10 l 1
EndSplineSet
EndChar

StartChar: f
Encoding: 102 102 42
Width: 286
VWidth: 0
Flags: HMW
LayerCount: 2
Fore
SplineSet
121 460 m 1
 351 460 l 1
 338 385 l 1
 108 385 l 1
 121 460 l 1
196 630 m 1
 274 620 l 1
 165 0 l 1
 85 0 l 1
 196 630 l 1
383 684 m 1
 373 707 354 710 338 710 c 0
 308 710 286 686 274 620 c 1
 196 630 l 1
 215 739 273 790 347 790 c 4
 400 790 427 770 438 750 c 1
 383 684 l 1
EndSplineSet
EndChar

StartChar: s
Encoding: 115 115 43
Width: 408
VWidth: 0
Flags: HMW
LayerCount: 2
Fore
SplineSet
124 161 m 1
 126 105 169 65 226 65 c 0
 278.594382048 65 318.095084269 85.5145067125 318.095084269 134.768123652 c 0
 318.095084269 176.455439308 273.968654141 195.727719654 229 215 c 0
 175.648020098 237.606771145 119.025390625 266.9375 119.025390625 340.090820312 c 0
 119.025390625 411.59765625 187.674804688 470 286 470 c 0
 359 470 432 431 441 380 c 1
 375 341 l 5
 352 379 315 394 278 394 c 0
 237.922225435 394 201.555664062 379.3203125 201.555664062 343.694335938 c 0
 201.555664062 310.422851562 253.340954864 285.954041444 298 266 c 0
 353.208800075 241.563318 402.68359375 204.83984375 402.68359375 138.415039062 c 0
 402.68359375 36.23828125 316.048828125 -10 218 -10 c 0
 133 -10 53 48 52 123 c 1
 124 161 l 1
EndSplineSet
EndChar

StartChar: y
Encoding: 121 121 44
Width: 440
VWidth: 0
Flags: HW
LayerCount: 2
Fore
SplineSet
206 104 m 4
 271 104 l 0
 521 460 l 1
 101 -220 l 1
 6 -220 l 5
 206 104 l 4
426 460 m 1
 521 460 l 1
 209 -15 l 1
 210 85 l 1
 426 460 l 1
81 460 m 1
 166 460 l 1
 260 95 l 1
 209 -15 l 1
 81 460 l 1
EndSplineSet
EndChar

StartChar: w
Encoding: 119 119 45
Width: 680
VWidth: 0
Flags: HW
LayerCount: 2
Fore
SplineSet
666 460 m 1
 756 460 l 1
 469 -35 l 1
 462 105 l 1
 666 460 l 1
366 365 m 1
 422 495 l 1
 512 105 l 1
 469 -35 l 1
 366 365 l 1
422 495 m 1
 431 360 l 5
 199 -35 l 1
 202 105 l 1
 422 495 l 1
86 460 m 1
 171 460 l 1
 247 105 l 1
 199 -35 l 1
 86 460 l 1
EndSplineSet
EndChar

StartChar: v
Encoding: 118 118 46
Width: 440
VWidth: 0
Flags: HW
LayerCount: 2
Fore
SplineSet
426 460 m 5
 521 460 l 1
 214 -35 l 1
 210 105 l 5
 426 460 l 5
81 460 m 1
 171 460 l 1
 255 95 l 1
 214 -35 l 1
 81 460 l 1
EndSplineSet
EndChar

StartChar: x
Encoding: 120 120 47
Width: 420
VWidth: 0
Flags: HW
LayerCount: 2
Fore
SplineSet
91 460 m 1
 186 460 l 1
 420 0 l 1
 325 0 l 1
 91 460 l 1
396 460 m 1
 491 460 l 1
 95 0 l 5
 0 0 l 1
 396 460 l 1
EndSplineSet
EndChar

StartChar: z
Encoding: 122 122 48
Width: 450
VWidth: 0
Flags: HMW
LayerCount: 2
Fore
SplineSet
103 75 m 1
 433 75 l 1
 420 0 l 1
 10 0 l 1
 103 75 l 1
111 460 m 1
 521 460 l 1
 438 385 l 1
 98 385 l 1
 111 460 l 1
423 460 m 1
 521 460 l 1
 108 0 l 5
 10 0 l 1
 423 460 l 1
EndSplineSet
EndChar

StartChar: j
Encoding: 106 106 49
Width: 260
VWidth: 0
Flags: HMW
LayerCount: 2
Fore
SplineSet
190 650 m 0
 190 680 215 705 245 705 c 0
 275 705 300 680 300 650 c 0
 300 620 275 595 245 595 c 0
 215 595 190 620 190 650 c 0
159 -60 m 1
 81 -50 l 1
 171 460 l 1
 251 460 l 1
 159 -60 l 1
-27 -114 m 1
 -17 -137 1 -140 17 -140 c 0
 47 -140 69 -116 81 -50 c 1
 159 -60 l 1
 140 -169 82 -220 8 -220 c 4
 -35 -220 -72 -200 -83 -180 c 5
 -27 -114 l 1
EndSplineSet
EndChar

StartChar: P
Encoding: 80 80 50
Width: 550
VWidth: 0
Flags: HMW
LayerCount: 2
Fore
SplineSet
319 280 m 5
 333 360 l 5
 418.718411656 360 509.456054688 412.067382812 509.456054688 516.893554688 c 4
 509.456054688 585.161132812 459.084012854 620 379 620 c 5
 393 700 l 5
 513.691558221 700 597.6171875 625.259765625 597.6171875 519.360351562 c 4
 597.6171875 372.819335938 461.474923651 280 319 280 c 5
176 280 m 1
 190 360 l 1
 333 360 l 1
 319 280 l 1
 176 280 l 1
236 620 m 1
 250 700 l 1
 393 700 l 1
 379 620 l 1
 236 620 l 1
203 700 m 1
 288 700 l 1
 165 0 l 1
 80 0 l 1
 203 700 l 1
EndSplineSet
EndChar

StartChar: U
Encoding: 85 85 51
Width: 608
VWidth: 0
Flags: HMW
LayerCount: 2
Fore
SplineSet
589 700 m 1
 674 700 l 1
 592 230 l 1
 507 230 l 1
 589 700 l 1
198 700 m 1
 283 700 l 1
 201 230 l 1
 116 230 l 1
 198 700 l 1
311 -10 m 4
 191.848632812 -10 111.646225031 68.6781543779 111.646225031 182.719321941 c 0
 111.646225031 197.887896592 113.065125587 213.682098266 116 230 c 1
 201 230 l 1
 198.815122399 217.661867664 197.753466005 205.852310014 197.753466005 194.639260638 c 0
 197.753466005 118.606306257 246.567382812 70 315 70 c 4
 405 70 490 134 507 230 c 5
 592 230 l 1
 567 91 456 -10 311 -10 c 4
EndSplineSet
EndChar

StartChar: S
Encoding: 83 83 52
Width: 538
VWidth: 0
Flags: HMW
LayerCount: 2
Fore
SplineSet
142 226 m 1
 167 130 220 70 297 70 c 4
 381.428414609 70 439.129362729 120.924567566 439.129362729 206.064327085 c 0
 439.129362729 279.435656418 369.236899246 311.615065625 301 338 c 0
 242.354345451 360.55602098 156.845703125 413.462890625 156.845703125 514.913085938 c 0
 156.845703125 637.052734375 254.09375 710 388 710 c 0
 501 710 568 631 583 560 c 1
 511 521 l 1
 491 579 462 629 375 629 c 4
 302.5859375 629 246.454101562 595.33203125 246.454101562 521.565429688 c 0
 246.454101562 458.171875 312.42051535 425.43179386 386 396 c 0
 447.186742826 371.705263878 530.234375 327.168945312 530.234375 215.965820312 c 0
 530.234375 62.5869140625 432.491210938 -10 288 -10 c 0
 173 -10 86 68 62 183 c 1
 142 226 l 1
EndSplineSet
EndChar

StartChar: at
Encoding: 64 64 53
Width: 770
VWidth: 0
Flags: HMW
LayerCount: 2
Fore
SplineSet
365 55 m 1
 455 55 512 65 585 107 c 1
 616 49 l 5
 551 20 487 -10 353 -10 c 1
 365 55 l 1
471 530 m 0
 540.389716546 530 570.459960938 482.68359375 570.459960938 406.884765625 c 0
 570.459960938 245.456054688 465.015392071 150 354 150 c 0
 288.788301707 150 241.720883283 196.116711333 241.720883283 273.231220663 c 0
 241.720883283 432.069882109 378.430623748 530 471 530 c 0
318.593087756 284.851333733 m 0
 318.593087756 243.987496918 340.802795419 220 387 220 c 0
 436.717657942 220 532.470879853 277.820354192 532.470879853 395.197705197 c 0
 532.470879853 442.22387151 502.0311521 460 459 460 c 0
 393.903250679 460 318.593087756 382.384759622 318.593087756 284.851333733 c 0
540 710 m 0
 719.379310345 710 809.069335938 575.516601562 809.069335938 437.370117188 c 0
 809.069335938 243.83984375 669.73046875 140 586 140 c 0
 531.026367188 140 506.338867188 169.352539062 506.338867188 211.2265625 c 0
 506.338867188 226.1484375 511.219726562 232.66015625 517 250 c 0
 517.250976562 250.690429688 517.368170219 261.258665257 517.368170219 261.719661116 c 0
 517.368170219 262.929746438 516.561182205 263.400641569 515.251273913 263.400641569 c 0
 510.6531316 263.400641569 499.857979511 257.59824732 496.017911273 257.59824732 c 0
 495.145299247 257.59824732 494.631829781 257.897867968 494.631829781 258.633280061 c 0
 494.631829781 258.98450717 494.748949264 259.435135845 495 260 c 2
 587 520 l 1
 662 520 l 1
 578 279 l 2
 576 272 572 260 571 252 c 0
 570.094095394 246.564572362 569.495939471 241.231727618 569.495939471 236.233791561 c 0
 569.495939471 219.163461169 576.473713002 206 602 206 c 0
 638.985750878 206 738.275630467 300.278540511 738.275630467 438.783844073 c 0
 738.275630467 551.39502797 667.396985474 645 529 645 c 0
 330.073761856 645 155.357408996 470.043418627 155.357408996 259.158888058 c 0
 155.357408996 132.020466285 236.392972263 55 365 55 c 1
 353 -10 l 1
 177.148548431 -10 83.7783203125 97.3427734375 83.7783203125 251.673828125 c 0
 83.7783203125 520.202148438 299.737821316 710 540 710 c 0
EndSplineSet
EndChar

StartChar: period
Encoding: 46 46 54
Width: 300
VWidth: 0
Flags: HMW
LayerCount: 2
Fore
SplineSet
95 40 m 4
 95 70 120 95 150 95 c 4
 180 95 205 70 205 40 c 4
 205 10 180 -15 150 -15 c 4
 120 -15 95 10 95 40 c 4
EndSplineSet
Validated: 1
EndChar

StartChar: comma
Encoding: 44 44 55
Width: 308
VWidth: 0
Flags: HMW
LayerCount: 2
Fore
SplineSet
167 110 m 5
 242 80 l 5
 88 -170 l 5
 34 -149 l 5
 167 110 l 5
EndSplineSet
EndChar

StartChar: exclam
Encoding: 33 33 59
Width: 300
VWidth: 0
Flags: HMW
LayerCount: 2
Fore
SplineSet
103 40 m 4
 103 70 128 95 158 95 c 4
 188 95 213 70 213 40 c 4
 213 10 188 -15 158 -15 c 4
 128 -15 103 10 103 40 c 4
223 700 m 1
 323 700 l 1
 215 200 l 1
 155 200 l 1
 223 700 l 1
EndSplineSet
EndChar

StartChar: quotesingle
Encoding: 39 39 60
Width: 295
VWidth: 0
Flags: HMW
LayerCount: 2
Fore
SplineSet
273 700 m 5
 368 700 l 5
 226 400 l 5
 171 400 l 5
 273 700 l 5
EndSplineSet
EndChar

StartChar: numbersign
Encoding: 35 35 61
Width: 605
VWidth: 0
Flags: HMW
LayerCount: 2
Fore
SplineSet
143 440 m 1
 154 505 l 1
 649 505 l 1
 638 440 l 1
 143 440 l 1
80 200 m 1
 92 265 l 1
 587 265 l 1
 575 200 l 1
 80 200 l 1
578 700 m 1
 653 700 l 1
 360 0 l 1
 285 0 l 1
 578 700 l 1
368 700 m 1
 443 700 l 1
 150 0 l 1
 75 0 l 1
 368 700 l 1
EndSplineSet
EndChar

StartChar: hyphen
Encoding: 45 45 62
Width: 210
VWidth: 0
Flags: HMW
LayerCount: 2
Fore
SplineSet
47 200 m 5
 47 275 l 5
 247 275 l 5
 247 200 l 5
 47 200 l 5
EndSplineSet
EndChar

StartChar: bar
Encoding: 124 124 64
Width: 340
VWidth: 0
Flags: HMW
LayerCount: 2
Fore
SplineSet
266 785 m 1
 340 785 l 1
 164 -215 l 1
 90 -215 l 1
 266 785 l 1
EndSplineSet
EndChar

StartChar: zero
Encoding: 48 48 65
Width: 600
VWidth: 0
Flags: HMW
LayerCount: 2
Fore
SplineSet
178.493613733 259.699329435 m 0
 178.493613733 155.501652824 226.2421875 72 313 72 c 0
 439.353515625 72 545.406572877 243.982430818 545.406572877 439.377604367 c 0
 545.406572877 554.091314477 497.991448049 630 411 630 c 4
 294.45797776 630 178.493613733 455.10910574 178.493613733 259.699329435 c 0
415 710 m 0
 553.897460938 710 630.953503122 604.214617614 630.953503122 447.176429431 c 0
 630.953503122 174.882701853 482.318359375 -10 308 -10 c 0
 179.294921875 -10 92.9749387325 95.4700712912 92.9749387325 252.121270762 c 0
 92.9749387325 504.478960218 240.504882812 710 415 710 c 0
EndSplineSet
EndChar

StartChar: one
Encoding: 49 49 66
Width: 470
VWidth: 0
Flags: HMW
LayerCount: 2
Fore
SplineSet
211 572 m 5
 226 660 l 5
 477 720 l 1
 421 632 l 1
 211 572 l 5
385 680 m 1
 477 720 l 1
 350 0 l 1
 265 0 l 1
 385 680 l 1
EndSplineSet
EndChar

StartChar: two
Encoding: 50 50 67
Width: 569
VWidth: 0
Flags: HMW
LayerCount: 2
Fore
SplineSet
64 0 m 1
 148 80 l 1
 528 80 l 1
 514 0 l 1
 64 0 l 1
460 294 m 2
 128 0 l 1
 20 0 l 1
 388 335 l 2
 464.920457995 404.644198455 517.134218786 454.618522298 517.134218786 538.792549803 c 0
 517.134218786 592.971239638 478.477100973 631 408 631 c 0
 308 631 238 556 221 460 c 1
 136 460 l 1
 161 599 267 711 422 711 c 0
 549.648955998 711 602.8984375 620.850585938 602.8984375 540.469726562 c 0
 602.8984375 423.403320312 528.685546875 355.400390625 460 294 c 2
EndSplineSet
EndChar

StartChar: four
Encoding: 52 52 68
Width: 593
VWidth: 0
Flags: HMW
LayerCount: 2
Fore
SplineSet
45 140 m 5
 128 215 l 5
 601 215 l 5
 588 140 l 5
 45 140 l 5
135 140 m 5
 45 140 l 5
 585 750 l 5
 562 620 l 5
 135 140 l 5
463 540 m 5
 585 750 l 5
 453 0 l 5
 368 0 l 5
 463 540 l 5
EndSplineSet
EndChar

StartChar: slash
Encoding: 47 47 69
Width: 615
VWidth: 0
Flags: HMW
LayerCount: 2
Fore
SplineSet
638 700 m 5
 723 700 l 5
 74 -150 l 5
 -11 -150 l 5
 638 700 l 5
EndSplineSet
EndChar

StartChar: backslash
Encoding: 92 92 70
Width: 515
VWidth: 0
Flags: HMW
LayerCount: 2
Fore
SplineSet
138 700 m 5
 223 700 l 5
 500 0 l 1
 415 0 l 1
 138 700 l 5
EndSplineSet
EndChar

StartChar: eight
Encoding: 56 56 71
Width: 546
VWidth: 0
Flags: HMW
LayerCount: 2
Fore
SplineSet
388 710 m 0
 482.107421875 710 562.919921875 653.770507812 562.919921875 553.62890625 c 0
 562.919921875 423.091796875 455.141284102 355 336 355 c 0
 234.967712438 355 170.211688552 398.994617649 170.211688552 490.374300591 c 0
 170.211688552 626.167364865 282.2265625 710 388 710 c 0
250.629496969 495.955965668 m 0
 250.629496969 443.877647841 284.263689348 410 345 410 c 0
 420.581719325 410 479.249987274 464.146332511 479.249987274 546.147051065 c 0
 479.249987274 605.382350355 437.970582383 635 385 635 c 0
 319.921196999 635 250.629496969 586.694519979 250.629496969 495.955965668 c 0
342 390 m 0
 444.896260658 390 528.579101562 333.159179688 528.579101562 218.7890625 c 4
 528.579101562 87.466796875 405.779296875 -10 281 -10 c 0
 158.818359375 -10 86.1025390625 63.2939453125 86.1025390625 167.114257812 c 0
 86.1025390625 308.329101562 223.503673417 390 342 390 c 0
168.617537527 173.54518421 m 0
 168.617537527 104.024719544 221.530231677 65 284 65 c 0
 356.271538652 65 446.88573777 121.801502467 446.88573777 221.821857215 c 0
 446.88573777 287.000894562 395.137678005 335 332 335 c 0
 255.427749556 335 168.617537527 266.917955437 168.617537527 173.54518421 c 0
EndSplineSet
EndChar

StartChar: three
Encoding: 51 51 73
Width: 546
VWidth: 0
Flags: HMW
LayerCount: 2
Fore
SplineSet
383 400 m 1
 383 341 l 1
 310 325 l 5
 324 400 l 1
 383 400 l 1
319 345 m 5
 324 400 l 1
 441.562607143 400 488.693287686 457.487561809 488.693287686 544.584974615 c 0
 488.693287686 596.657178812 459.539082427 635 400 635 c 0
 330 635 277 597 264 526 c 1
 183 526 l 1
 202 635 288 710 403 710 c 0
 514.784179688 710 571.916992188 633.413085938 571.916992188 549.467773438 c 0
 571.916992188 405.7734375 473.78125 345 319 345 c 5
281 -10 m 0
 161.92578125 -10 89.6443875451 56.9058300839 89.6443875451 147.487133702 c 0
 89.6443875451 159.602369801 90.7585468164 172.141137 93 185 c 1
 174 185 l 1
 172.643965052 177.541807787 171.977491647 170.236851471 171.977491647 163.145737414 c 0
 171.977491647 107.485247011 213.040232986 65 284 65 c 0
 368.629274121 65 451.28352455 117.649547987 451.28352455 220.631638751 c 0
 451.28352455 282.85632503 407.176668737 325 310 325 c 1
 325 380 l 5
 456.943359375 380 533.001610692 318.481387386 533.001610692 227.513119755 c 4
 533.001610692 73.8700433647 426.477539062 -10 281 -10 c 0
EndSplineSet
EndChar

StartChar: five
Encoding: 53 53 74
Width: 564
VWidth: 0
Flags: HMW
LayerCount: 2
Fore
SplineSet
315 700 m 1
 400 700 l 1
 279 417 l 1
 158 327 l 1
 315 700 l 1
315 700 m 1
 645 700 l 1
 632 625 l 1
 302 625 l 1
 315 700 l 1
287 -10 m 4
 158 -10 86 57 54 137 c 1
 135 186 l 1
 155 126 214 70 291 70 c 4
 388.949789883 70 480.605674568 139.718340937 480.605674568 268.193218536 c 0
 480.605674568 348.955972734 426.464030548 390 348 390 c 0
 281 390 238 377 158 327 c 1
 219 393 l 1
 306 453 313 470 402 470 c 0
 493.933060772 470 569.767578125 390.240234375 569.767578125 272.869140625 c 0
 569.767578125 72.2158203125 421.7890625 -10 287 -10 c 4
EndSplineSet
EndChar

StartChar: six
Encoding: 54 54 75
Width: 556
VWidth: 0
Flags: HMW
LayerCount: 2
Fore
SplineSet
443 700 m 1
 550 700 l 1
 247 375 l 1
 150 375 l 1
 443 700 l 1
150 375 m 0
 177 405 211 387 242 402 c 1
 291 430 316 453 399 453 c 0
 490.49081654 453 561.08616555 380.252816749 561.08616555 274.926847607 c 0
 561.08616555 102.499531454 428.935546875 -10 286 -10 c 0
 156.848632812 -10 76.6462250308 64.7831962403 76.6462250308 181.347576384 c 0
 76.6462250308 263.774615372 109.191658467 329.245192826 150 375 c 0
158.92578125 191.26171875 m 4
 158.92578125 113.6640625 210.968470013 67 290 67 c 0
 386.953778764 67 479.074245699 147.022445302 479.074245699 263.820005088 c 0
 479.074245699 341.793480431 427.031529987 395 348 395 c 0
 251.221793804 395 158.92578125 307.850585938 158.92578125 191.26171875 c 4
EndSplineSet
EndChar

StartChar: seven
Encoding: 55 55 76
Width: 525
VWidth: 0
Flags: HMW
LayerCount: 2
Fore
SplineSet
139 620 m 1
 153 700 l 1
 643 700 l 1
 559 620 l 1
 139 620 l 1
548 700 m 5
 643 700 l 1
 185 0 l 1
 90 0 l 5
 548 700 l 5
EndSplineSet
EndChar

StartChar: plus
Encoding: 43 43 77
Width: 615
VWidth: 0
Flags: HMW
LayerCount: 2
Fore
SplineSet
103 215 m 1
 117 295 l 1
 602 295 l 1
 588 215 l 1
 103 215 l 1
353 500 m 5
 438 500 l 5
 352 10 l 5
 267 10 l 5
 353 500 l 5
EndSplineSet
EndChar

StartChar: percent
Encoding: 37 37 79
Width: 751
VWidth: 0
Flags: HMW
LayerCount: 2
Fore
SplineSet
132 550 m 4
 148 639 223 710 318 710 c 4
 413 710 464 639 448 550 c 4
 432 461 357 390 262 390 c 4
 167 390 116 461 132 550 c 4
203 550 m 4
 194 499 218 455 273 455 c 4
 328 455 368 499 377 550 c 4
 386 601 362 645 307 645 c 4
 252 645 212 601 203 550 c 4
426 150 m 4
 442 239 518 310 613 310 c 4
 708 310 758 239 742 150 c 4
 726 61 651 -10 556 -10 c 4
 461 -10 410 61 426 150 c 4
497 150 m 4
 488 99 513 55 568 55 c 4
 623 55 662 99 671 150 c 4
 680 201 656 245 601 245 c 4
 546 245 506 201 497 150 c 4
686 700 m 5
 761 700 l 5
 188 0 l 5
 113 0 l 5
 686 700 l 5
EndSplineSet
EndChar

StartChar: ampersand
Encoding: 38 38 80
Width: 675
VWidth: 0
Flags: HMW
LayerCount: 2
Fore
SplineSet
316 346 m 2
 281.868164062 399.7578125 241.368164062 463.505859375 241.368164062 536.037109375 c 0
 241.368164062 647.534179688 342.177734375 711 439 711 c 0
 554 711 599 638 599 574 c 1
 519 574 l 1
 519 610 496 639 436 639 c 0
 364.149414062 639 320.403320312 594.971679688 320.403320312 538.784179688 c 0
 320.403320312 489.219726562 340.606445312 445.577148438 379 385 c 2
 648 0 l 1
 556 2 l 1
 316 346 l 2
599 574 m 1
 599 467 485 413 416 378 c 0
 333.977680997 336.482529887 155.963867188 317.862304688 155.963867188 177.810546875 c 4
 155.963867188 119.408203125 194.440429688 65 301 65 c 0
 418 65 579 216 658 316 c 1
 713 277 l 1
 616 157 467 -10 298 -10 c 4
 157.3203125 -10 70.6279296875 47.6689453125 70.6279296875 163.489257812 c 4
 70.6279296875 346.872070312 278.923585311 386.191007264 358 417 c 4
 439 449 519 508 519 574 c 1
 599 574 l 1
EndSplineSet
EndChar

StartChar: question
Encoding: 63 63 81
Width: 557
VWidth: 0
Flags: HMW
LayerCount: 2
Fore
SplineSet
259 345 m 1
 349 345 l 1
 308 170 l 1
 248 170 l 1
 259 345 l 1
506.715100643 529.688787252 m 0
 506.715100643 597.184367029 460.064250166 635 381 635 c 0
 314 635 262 602 222 552 c 1
 165 593 l 1
 223 663 275 710 394 710 c 4
 505.219726562 710 588.439453125 637.958007812 588.439453125 528.251953125 c 0
 588.439453125 383.038085938 448.283480335 290 325 290 c 1
 285 345 l 1
 414.262194504 345 506.715100643 430.282071521 506.715100643 529.688787252 c 0
EndSplineSet
Refer: 54 46 N 1 0 0 1 107 0 2
EndChar

StartChar: parenleft
Encoding: 40 40 82
Width: 310
VWidth: 0
Flags: HMW
LayerCount: 2
Fore
SplineSet
343 780 m 5
 418 780 l 5
 322 630 261 460 231 290 c 4
 201 120 201 -50 245 -200 c 5
 170 -200 l 5
 116 -50 111 120 141 290 c 4
 171 460 237 630 343 780 c 5
EndSplineSet
EndChar

StartChar: asterisk
Encoding: 42 42 84
Width: 592
VWidth: 0
Flags: HMW
LayerCount: 2
Fore
SplineSet
577 599 m 1
 586 532 l 1
 389 481 l 1
 381 529 l 1
 577 599 l 1
504 368 m 1
 440 327 l 1
 362 490 l 1
 408 520 l 1
 504 368 l 1
268 327 m 1
 218 368 l 1
 368 520 l 1
 402 490 l 1
 268 327 l 1
194 532 m 1
 227 599 l 1
 397 529 l 1
 373 481 l 1
 194 532 l 1
384 700 m 1
 454 700 l 1
 410 505 l 1
 360 505 l 1
 384 700 l 1
EndSplineSet
EndChar

StartChar: less
Encoding: 60 60 85
Width: 640
VWidth: 0
Flags: HMW
LayerCount: 2
Fore
SplineSet
113 275 m 1
 190 275 l 1
 184 240 l 1
 107 240 l 1
 113 275 l 1
188 235 m 5
 113 275 l 1
 662 495 l 1
 650 415 l 5
 188 235 l 5
107 240 m 1
 195 285 l 1
 592 95 l 1
 579 20 l 1
 107 240 l 1
EndSplineSet
EndChar

StartChar: bracketleft
Encoding: 91 91 87
Width: 300
VWidth: 0
Flags: HMW
LayerCount: 2
Fore
SplineSet
136 -215 m 1
 149 -140 l 1
 255 -140 l 1
 242 -215 l 1
 136 -215 l 1
299 710 m 1
 312 785 l 1
 418 785 l 1
 405 710 l 1
 299 710 l 1
238 785 m 1
 317 785 l 1
 141 -215 l 1
 62 -215 l 1
 238 785 l 1
EndSplineSet
EndChar

StartChar: asciicircum
Encoding: 94 94 89
Width: 510
VWidth: 0
Flags: HMW
LayerCount: 2
Fore
SplineSet
360 710 m 1
 400 710 l 1
 400 640 l 1
 350 650 l 1
 360 710 l 1
350 650 m 1
 400 710 l 1
 526 460 l 1
 446 460 l 1
 350 650 l 1
360 710 m 1
 395 640 l 5
 231 460 l 5
 146 460 l 1
 360 710 l 1
EndSplineSet
EndChar

StartChar: grave
Encoding: 96 96 91
Width: 375
VWidth: 0
Flags: HMW
LayerCount: 2
Fore
SplineSet
191 660 m 1
 273 700 l 1
 395 540 l 5
 345 510 l 5
 191 660 l 1
EndSplineSet
EndChar

StartChar: braceleft
Encoding: 123 123 92
Width: 321
VWidth: 0
Flags: HMW
LayerCount: 2
Fore
SplineSet
151 320 m 1
 141 260 l 1
 126 260 l 1
 136 320 l 1
 151 320 l 1
148 300 m 1
 257 300 240 179 224 90 c 1
 154 150 l 1
 167 226 154 250 126 260 c 1
 126 260 142 285 148 300 c 1
196 -200 m 1
 238 -130 l 1
 268 -130 l 1
 256 -200 l 1
 196 -200 l 1
117 -60 m 1
 154 150 l 1
 224 90 l 1
 194 -80 l 1
 117 -60 l 1
238 -130 m 1
 196 -200 l 1
 152 -200 100 -159 117 -60 c 1
 194 -80 l 1
 189 -106 203 -130 233 -130 c 2
 238 -130 l 1
136 320 m 1
 168 330 191 354 204 430 c 1
 294 490 l 1
 278 401 253 280 144 280 c 1
 144 296 136 320 136 320 c 1
369 780 m 1
 429 780 l 1
 416 710 l 1
 386 710 l 1
 369 780 l 1
241 640 m 1
 324 660 l 1
 294 490 l 1
 204 430 l 5
 241 640 l 1
386 710 m 1
 381 710 l 2
 351 710 329 686 324 660 c 1
 241 640 l 1
 258 739 325 780 369 780 c 1
 386 710 l 1
EndSplineSet
EndChar

StartChar: asciitilde
Encoding: 126 126 94
Width: 575
VWidth: 0
Flags: HMW
LayerCount: 2
Fore
SplineSet
173 176 m 1
 100 181 l 1
 99 188 99 196 101 205 c 0
 105 226 110 252 132 276 c 0
 164 311 210 327 252 327 c 0
 291 327 330 311 366 279 c 0
 392 256 416 247 434 247 c 0
 448 247 460 251 470 261 c 0
 477 269 482 282 484 296 c 0
 485 304 486 313 484 323 c 1
 562 318 l 1
 563 310 563 300 561 290 c 0
 557 270 551 238 530 215 c 0
 498 181 466 172 430 172 c 0
 396 172 361 189 322 219 c 4
 294.485351562 240.165039062 263 253 238 253 c 0
 219 253 203 247 193 237 c 0
 184 228 176 214 173 198 c 0
 172 191 171 184 173 176 c 1
EndSplineSet
EndChar

StartChar: sterling
Encoding: 163 163 97
Width: 542
VWidth: 0
Flags: HMW
LayerCount: 2
Fore
SplineSet
35 0 m 1
 139 80 l 1
 502 80 l 1
 488 0 l 1
 35 0 l 1
178 518 m 1
 266 520 l 1
 246 404 336 376 316 264 c 0
 297 158 210 70 132 50 c 1
 35 0 l 1
 151 102 216 161 232 249 c 0
 249 343 154 382 178 518 c 1
103 370 m 1
 463 370 l 1
 450 295 l 1
 90 295 l 1
 103 370 l 1
505 479 m 1
 514 552 488 626 402 626 c 0
 342 626 279 596 266 520 c 1
 178 518 l 1
 199 637 298 710 422 710 c 0
 565 710 591 588 582 508 c 1
 505 479 l 1
EndSplineSet
EndChar

StartChar: currency
Encoding: 164 164 98
Width: 626
VWidth: 0
Flags: HMW
LayerCount: 2
Fore
SplineSet
139 503 m 1
 197 553 l 1
 274 459 l 1
 216 410 l 1
 139 503 l 1
108 47 m 1
 67 97 l 1
 177 190 l 1
 218 141 l 1
 108 47 l 1
534 410 m 1
 494 459 l 1
 604 553 l 1
 644 503 l 1
 534 410 l 1
437 141 m 1
 496 190 l 1
 573 97 l 1
 515 47 l 1
 437 141 l 1
118 300 m 0
 143 439 263 540 398 540 c 0
 533 540 619 439 594 300 c 0
 569 161 449 60 314 60 c 0
 179 60 93 161 118 300 c 0
199 300 m 0
 182 204 237 135 327 135 c 0
 417 135 496 204 513 300 c 0
 530 396 475 465 385 465 c 0
 295 465 216 396 199 300 c 0
EndSplineSet
EndChar

StartChar: brokenbar
Encoding: 166 166 100
Width: 340
VWidth: 0
Flags: HMW
LayerCount: 2
Fore
SplineSet
251 695 m 1
 325 695 l 1
 282 455 l 1
 208 455 l 1
 251 695 l 1
245 245 m 1
 203 5 l 1
 129 5 l 1
 171 245 l 1
 245 245 l 1
EndSplineSet
EndChar

StartChar: section
Encoding: 167 167 101
Width: 408
VWidth: 0
Flags: HMW
LayerCount: 2
Fore
SplineSet
258 275 m 5
 308 275 352 323 359 363 c 5
 443 370 l 5
 426 271 351 240 252 240 c 5
 258 275 l 5
412 579 m 5
 399 617 358 634 321 634 c 4
 281 634 248 620 243 589 c 5
 163 589 l 5
 176 665 259 710 333 710 c 4
 406 710 474 671 483 620 c 5
 412 579 l 5
163 589 m 5
 243 589 l 5
 237 553 293 527 340 506 c 4
 401 479 455 437 443 370 c 5
 359 363 l 5
 368 413 320 434 271 455 c 4
 212 480 149 512 163 589 c 5
122 359 m 5
 204 369 l 5
 192 303 251 287 298 266 c 4
 359 239 413 197 401 130 c 5
 317 123 l 5
 326 173 278 194 229 215 c 4
 170 240 108 282 122 359 c 5
124 161 m 5
 126 105 169 65 226 65 c 4
 276 65 310 83 317 123 c 5
 401 130 l 5
 384 31 307 -10 208 -10 c 4
 123 -10 53 48 52 123 c 5
 124 161 l 5
308 454 m 5
 244 434 211 410 204 369 c 5
 122 359 l 5
 135 435 199 480 313 480 c 5
 308 454 l 5
EndSplineSet
EndChar

StartChar: copyright
Encoding: 169 169 103
Width: 800
VWidth: 0
Flags: HMW
LayerCount: 2
Fore
SplineSet
151.70727982 290.529311312 m 4
 151.70727982 143.377956237 253.900734018 40 407 40 c 4
 591.815740073 40 772.256303515 203.383465659 772.256303515 409.083787466 c 4
 772.256303515 556.440805619 669.233411001 660 516 660 c 4
 331.047298709 660 151.70727982 506.349375041 151.70727982 290.529311312 c 4
525 710 m 4
 705.657491465 710 828.280871952 591.579043815 828.280871952 419.326400954 c 4
 828.280871952 165.7082291 625.55488572 -10 398 -10 c 4
 217.475395267 -10 95.6826477176 108.246805796 95.6826477176 280.293573388 c 4
 95.6826477176 534.026968249 307.31072675 710 525 710 c 4
EndSplineSet
Refer: 3 67 N 0.6 0 0 0.6 189 140 2
EndChar

StartChar: registered
Encoding: 174 174 104
Width: 800
VWidth: 0
Flags: HMW
LayerCount: 2
Fore
SplineSet
151.70727982 290.529311312 m 0
 151.70727982 143.377956237 253.900734018 40 407 40 c 0
 591.815740073 40 772.256303515 203.383465659 772.256303515 409.083787466 c 0
 772.256303515 556.440805619 669.233411001 660 516 660 c 0
 331.047298709 660 151.70727982 506.349375041 151.70727982 290.529311312 c 0
525 710 m 0
 705.657491465 710 828.280871952 591.579043815 828.280871952 419.326400954 c 0
 828.280871952 165.7082291 625.55488572 -10 398 -10 c 0
 217.475395267 -10 95.6826477176 108.246805796 95.6826477176 280.293573388 c 0
 95.6826477176 534.026968249 307.31072675 710 525 710 c 0
EndSplineSet
Refer: 13 82 S 0.6 0 0 0.6 256 150 2
EndChar

StartChar: logicalnot
Encoding: 172 172 110
Width: 620
VWidth: 0
Flags: HMW
LayerCount: 2
Fore
SplineSet
570 375 m 5
 655 375 l 1
 575 175 l 1
 490 175 l 5
 570 375 l 5
EndSplineSet
Refer: 62 45 N 2.45 0 0 1 12.75 100 2
EndChar

StartChar: plusminus
Encoding: 177 177 113
Width: 615
VWidth: 0
Flags: HMW
LayerCount: 2
Fore
SplineSet
77 70 m 1
 91 150 l 1
 576 150 l 1
 562 70 l 1
 77 70 l 1
124 335 m 1
 138 415 l 1
 623 415 l 1
 609 335 l 1
 124 335 l 1
366 570 m 1
 451 570 l 1
 382 180 l 1
 297 180 l 1
 366 570 l 1
EndSplineSet
EndChar

StartChar: acute
Encoding: 180 180 116
Width: 375
VWidth: 0
Flags: HMW
LayerCount: 2
Fore
SplineSet
416 660 m 5
 210 510 l 5
 170 540 l 5
 348 700 l 5
 416 660 l 5
EndSplineSet
EndChar

StartChar: paragraph
Encoding: 182 182 118
Width: 578
VWidth: 0
Flags: HMW
LayerCount: 2
Fore
SplineSet
288 635 m 1
 288 700 l 1
 488 700 l 1
 488 635 l 1
 288 635 l 1
448 700 m 1
 518 700 l 1
 518 -220 l 5
 448 -220 l 5
 448 700 l 1
288 700 m 1
 358 700 l 1
 358 -220 l 5
 288 -220 l 5
 288 700 l 1
288 270 m 1
 163 270 60 346 60 485 c 0
 60 624 163 700 288 700 c 1
 288 270 l 1
EndSplineSet
Validated: 5
EndChar

StartChar: cedilla
Encoding: 184 184 121
Width: 350
Flags: HMW
LayerCount: 2
Fore
SplineSet
196 60 m 1
 247 60 l 1
 191.799804688 -53.7998046875 l 1
 120.799804688 -97.7998046875 l 1
 196 60 l 1
265.200195312 -126 m 1
 218.400390625 -126 l 5
 218.400390625 -102.400390625 202.200195312 -80 168.200195312 -80 c 0
 158 -80 143.400390625 -81.7998046875 120.799804688 -97.7998046875 c 1
 150.799804688 -68.2001953125 l 1
 176.400390625 -52.2001953125 188.799804688 -52 202.200195312 -52 c 0
 235.200195312 -52 265.200195312 -86.599609375 265.200195312 -126 c 1
265.200195312 -126 m 1
 265.200195312 -187.400390625 223.200195312 -220 168.200195312 -220 c 0
 130.799804688 -220 106.400390625 -209.799804688 78.7998046875 -181.799804688 c 1
 112 -152.400390625 l 1
 130.599609375 -168.400390625 142 -176 168.200195312 -176 c 0
 202.200195312 -176 218.400390625 -149.599609375 218.400390625 -126 c 5
 265.200195312 -126 l 1
EndSplineSet
Validated: 5
EndChar

StartChar: multiply
Encoding: 215 215 123
Width: 596
VWidth: 0
Flags: HMW
LayerCount: 2
Fore
SplineSet
324 273 m 1
 369 273 l 1
 362 232 l 1
 317 232 l 1
 324 273 l 1
321 224 m 1
 377 271 l 1
 543 76 l 1
 481 24 l 1
 321 224 l 1
143 434 m 1
 205 486 l 1
 365 286 l 1
 309 239 l 1
 143 434 l 1
374 235 m 5
 329 290 l 1
 559 490 l 1
 608 430 l 5
 374 235 l 5
126 20 m 5
 77 80 l 1
 311 275 l 1
 356 220 l 5
 126 20 l 5
EndSplineSet
EndChar

StartChar: Thorn
Encoding: 222 222 125
Width: 550
VWidth: 0
Flags: HMW
LayerCount: 2
Fore
SplineSet
270 140 m 5
 270 220 l 5
 360 220 423 264 423 350 c 4
 423 436 360 480 270 480 c 5
 270 560 l 5
 405 560 508 479 508 350 c 4
 508 221 405 140 270 140 c 5
127 140 m 5
 127 220 l 5
 270 220 l 5
 270 140 l 5
 127 140 l 5
127 480 m 5
 127 560 l 5
 270 560 l 5
 270 480 l 5
 127 480 l 5
80 700 m 1
 165 700 l 1
 165 0 l 1
 80 0 l 1
 80 700 l 1
EndSplineSet
Validated: 5
EndChar

StartChar: circumflex
Encoding: 710 710 128
Width: 480
VWidth: 0
Flags: HMW
LayerCount: 2
Fore
SplineSet
331 681 m 5
 379 730 l 5
 514 590 l 5
 458 551 l 5
 331 681 l 5
379 730 m 5
 416 673 l 5
 243 543 l 5
 194 590 l 5
 379 730 l 5
EndSplineSet
EndChar

StartChar: ogonek
Encoding: 731 731 129
Width: 260
VWidth: 0
Flags: HMW
LayerCount: 2
Fore
SplineSet
194 -130 m 1
 227 -180 l 1
 212 -200 182 -220 139 -220 c 0
 55 -220 16 -179 16 -120 c 1
 96 -100 l 5
 96 -136 114 -150 144 -150 c 4
 170 -150 180 -143 194 -130 c 1
96 -100 m 1
 16 -120 l 1
 16 -61 77.7509765625 -11 147.750976562 25 c 1
 188.750976562 0 l 1
 136.690429688 -22.27734375 96.296875 -62.6220703125 96 -100 c 1
EndSplineSet
Validated: 5
EndChar

StartChar: tilde
Encoding: 732 732 130
Width: 530
VWidth: 0
Flags: HMW
LayerCount: 2
Fore
SplineSet
190 625 m 1
 209 674 269 707 314 707 c 0
 353 707 378 692 392 682 c 0
 413 668 431 660 459 660 c 0
 478 660 503 676 529 708 c 1
 567 665 l 1
 545 628 503 592 443 592 c 4
 409 592 390 600 369 612 c 0
 349 624 326 639 301 639 c 4
 273 639 240 603 237 588 c 1
 190 625 l 1
EndSplineSet
EndChar

StartChar: ring
Encoding: 730 730 131
Width: 278
VWidth: 0
Flags: HMW
LayerCount: 2
Fore
SplineSet
180 785 m 4
 180 844.5 221.5 885 279 885 c 4
 336.5 885 378 844.5 378 785 c 4
 378 725.5 336.5 685 279 685 c 4
 221.5 685 180 725.5 180 785 c 4
220.5 785 m 4
 220.5 747 244 722.5 279 722.5 c 4
 314 722.5 337.5 747 337.5 785 c 4
 337.5 823 314 847.5 279 847.5 c 4
 244 847.5 220.5 823 220.5 785 c 4
EndSplineSet
EndChar

StartChar: quoteright
Encoding: 8217 8217 138
Width: 295
VWidth: 0
Flags: HMW
LayerCount: 2
Fore
SplineSet
273 700 m 5
 368 700 l 5
 228 470 l 5
 173 470 l 5
 273 700 l 5
EndSplineSet
EndChar

StartChar: perthousand
Encoding: 8240 8240 143
Width: 1131
VWidth: 0
Flags: HMW
LayerCount: 2
Fore
SplineSet
806 150 m 4
 822 239 898 310 993 310 c 4
 1088 310 1138 239 1122 150 c 4
 1106 61 1031 -10 936 -10 c 4
 841 -10 790 61 806 150 c 4
877 150 m 4
 868 99 893 55 948 55 c 4
 1003 55 1042 99 1051 150 c 4
 1060 201 1036 245 981 245 c 4
 926 245 886 201 877 150 c 4
132 550 m 4
 148 639 223 710 318 710 c 4
 413 710 464 639 448 550 c 4
 432 461 357 390 262 390 c 4
 167 390 116 461 132 550 c 4
203 550 m 4
 194 499 218 455 273 455 c 4
 328 455 368 499 377 550 c 4
 386 601 362 645 307 645 c 4
 252 645 212 601 203 550 c 4
426 150 m 4
 442 239 518 310 613 310 c 4
 708 310 758 239 742 150 c 4
 726 61 651 -10 556 -10 c 4
 461 -10 410 61 426 150 c 4
497 150 m 4
 488 99 513 55 568 55 c 4
 623 55 662 99 671 150 c 4
 680 201 656 245 601 245 c 4
 546 245 506 201 497 150 c 4
686 700 m 5
 761 700 l 5
 188 0 l 5
 113 0 l 5
 686 700 l 5
EndSplineSet
EndChar

StartChar: guilsinglleft
Encoding: 8249 8249 144
Width: 350
VWidth: 0
Flags: HMW
LayerCount: 2
Fore
SplineSet
155 231 m 5
 85 255 l 1
 316 490 l 1
 362 441 l 5
 155 231 l 5
85 255 m 1
 156 281 l 1
 287 61 l 1
 234 20 l 1
 85 255 l 1
EndSplineSet
EndChar

StartChar: uni2031
Encoding: 8241 8241 146
Width: 1511
VWidth: 0
Flags: HMW
LayerCount: 2
Fore
SplineSet
1186 150 m 0
 1202 239 1278 310 1373 310 c 0
 1468 310 1518 239 1502 150 c 0
 1486 61 1411 -10 1316 -10 c 0
 1221 -10 1170 61 1186 150 c 0
1257 150 m 0
 1248 99 1273 55 1328 55 c 0
 1383 55 1422 99 1431 150 c 0
 1440 201 1416 245 1361 245 c 0
 1306 245 1266 201 1257 150 c 0
806 150 m 0
 822 239 898 310 993 310 c 0
 1088 310 1138 239 1122 150 c 0
 1106 61 1031 -10 936 -10 c 0
 841 -10 790 61 806 150 c 0
877 150 m 0
 868 99 893 55 948 55 c 0
 1003 55 1042 99 1051 150 c 0
 1060 201 1036 245 981 245 c 0
 926 245 886 201 877 150 c 0
132 550 m 0
 148 639 223 710 318 710 c 0
 413 710 464 639 448 550 c 0
 432 461 357 390 262 390 c 0
 167 390 116 461 132 550 c 0
203 550 m 0
 194 499 218 455 273 455 c 0
 328 455 368 499 377 550 c 0
 386 601 362 645 307 645 c 0
 252 645 212 601 203 550 c 0
426 150 m 0
 442 239 518 310 613 310 c 0
 708 310 758 239 742 150 c 0
 726 61 651 -10 556 -10 c 0
 461 -10 410 61 426 150 c 0
497 150 m 0
 488 99 513 55 568 55 c 0
 623 55 662 99 671 150 c 0
 680 201 656 245 601 245 c 0
 546 245 506 201 497 150 c 0
686 700 m 5
 761 700 l 5
 188 0 l 5
 113 0 l 5
 686 700 l 5
EndSplineSet
EndChar

StartChar: Euro
Encoding: 8364 8364 148
Width: 700
VWidth: 0
Flags: HMW
LayerCount: 2
Fore
SplineSet
187 350 m 0
 158 187 224 70 352 70 c 0
 409 70 465 92 513 132 c 1
 495 31 l 1
 445 5 392 -10 338 -10 c 0
 164 -10 65 141 102 350 c 0
 139 559 291 710 465 710 c 0
 519 710 568 695 608 669 c 1
 590 568 l 1
 556 608 508 630 451 630 c 0
 323 630 216 513 187 350 c 0
EndSplineSet
Refer: 62 45 S 2.375 0 0 0.64 -96.875 159 2
Refer: 62 45 S 2.505 0 0 0.64 -97.525 279 2
EndChar

StartChar: fraction
Encoding: 8260 8260 149
Width: 705
VWidth: 0
Flags: HMW
LayerCount: 2
Fore
SplineSet
703 700 m 1
 768 700 l 1
 125 0 l 5
 60 0 l 5
 703 700 l 1
EndSplineSet
EndChar

StartChar: AE
Encoding: 198 198 191
Width: 975
VWidth: 0
Flags: HMW
LayerCount: 2
Fore
SplineSet
269 210 m 1
 283 290 l 1
 583 290 l 1
 569 210 l 1
 269 210 l 1
573 700 m 1
 635 660 l 5
 115 0 l 1
 20 0 l 1
 573 700 l 1
552 0 m 1
 566 80 l 1
 919 80 l 1
 905 0 l 1
 552 0 l 1
669 620 m 1
 573 700 l 1
 1028 700 l 1
 1014 620 l 1
 669 620 l 1
612 340 m 1
 626 420 l 1
 959 420 l 1
 945 340 l 1
 612 340 l 1
628 700 m 1
 713 700 l 1
 590 0 l 1
 505 0 l 1
 628 700 l 1
EndSplineSet
EndChar

StartChar: germandbls
Encoding: 223 223 219
Width: 550
VWidth: 0
Flags: HMW
LayerCount: 2
Fore
SplineSet
182 606 m 5
 262 606 l 5
 155 0 l 5
 75 0 l 5
 182 606 l 5
322 425 m 5
 332 480 l 5
 442 480 494 540 504 596 c 4
 516 662 488 715 398 715 c 4
 338 715 275 682 262 606 c 5
 182 606 l 5
 201 715 306 790 411 790 c 4
 546 790 606 715 587 606 c 4
 566 487 477 425 322 425 c 5
278 65 m 5
 358 65 461 129 480 235 c 4
 495 321 428 405 318 405 c 5
 328 460 l 5
 483 460 585 364 560 225 c 4
 535 86 400 -10 265 -10 c 5
 278 65 l 5
EndSplineSet
EndChar

StartChar: ae
Encoding: 230 230 220
Width: 825
VWidth: 0
Flags: HMW
LayerCount: 2
Fore
SplineSet
453 210 m 1
 465 278 l 1
 818 278 l 1
 826 210 l 1
 453 210 l 1
826 210 m 1
 749 250 l 1
 764 336 734 400 644 400 c 0
 564 400 489 346 474 260 c 1
 426 230 l 1
 451 369 531 470 666 470 c 0
 786 470 857 379 831 234 c 0
 830 226 828 218 826 210 c 1
406 230 m 5
 467 230 l 1
 448 124 494 65 584 65 c 0
 651 65 703 98 743 148 c 1
 801 107 l 1
 743 37 680 -10 571 -10 c 0
 416 -10 381 91 406 230 c 5
403 330 m 1
 483 330 l 1
 448 130 l 1
 368 130 l 1
 403 330 l 1
173 352 m 1
 145 413 l 1
 183 438 248 470 331 470 c 0
 436 470 499 419 483 330 c 1
 403 330 l 1
 411 376 369 400 319 400 c 0
 253 400 198 368 173 352 c 1
136 140 m 0
 124 74 184 61 229 61 c 0
 309 61 362 94 377 180 c 1
 424 130 l 1
 408 41 301 -10 206 -10 c 0
 121 -10 36 31 55 140 c 0
 72 237 185 286 286 286 c 0
 364 286 399 259 419 235 c 1
 412 192 l 1
 368 217 328 225 280 225 c 0
 196 225 146 196 136 140 c 0
EndSplineSet
EndChar

StartChar: dotlessi
Encoding: 305 305 227
Width: 260
VWidth: 0
Flags: HMW
LayerCount: 2
Fore
SplineSet
171 460 m 1
 251 460 l 1
 170 0 l 1
 90 0 l 1
 171 460 l 1
EndSplineSet
EndChar

StartChar: kgreenlandic
Encoding: 312 312 228
Width: 440
VWidth: 0
Flags: HMW
LayerCount: 2
Fore
SplineSet
168 270 m 1
 268 270 l 1
 440 0 l 1
 340 0 l 1
 168 270 l 1
401 460 m 1
 501 460 l 1
 268 270 l 1
 168 270 l 1
 401 460 l 1
151 460 m 5
 231 460 l 5
 150 0 l 1
 70 0 l 1
 151 460 l 5
EndSplineSet
EndChar

StartChar: thorn
Encoding: 254 254 243
Width: 570
VWidth: 0
Flags: HMW
LayerCount: 2
Fore
SplineSet
111 -220 m 5
 31 -220 l 5
 208 780 l 5
 288 780 l 5
 111 -220 l 5
576 230 m 4
 550 81 430 -10 305 -10 c 4
 190 -10 129 81 155 230 c 4
 181 379 275 470 390 470 c 4
 515 470 602 379 576 230 c 4
495 230 m 4
 514 336 452 395 367 395 c 4
 297 395 210 336 191 230 c 4
 172 124 238 65 308 65 c 4
 393 65 476 124 495 230 c 4
EndSplineSet
EndChar

StartChar: breve
Encoding: 728 728 247
Width: 546
VWidth: 0
Flags: HMW
LayerCount: 2
Fore
SplineSet
265 850 m 5
 336 850 l 5
 331 824 340 775 410 775 c 4
 480 775 505 824 510 850 c 5
 581 850 l 5
 569 781 503 710 398 710 c 4
 293 710 253 781 265 850 c 5
EndSplineSet
EndChar

StartChar: eth
Encoding: 240 240 302
Width: 556
VWidth: 0
Flags: HW
LayerCount: 2
Fore
SplineSet
359 700 m 1
 538 375 l 1
 441 375 l 1
 252 700 l 1
 359 700 l 1
557 230 m 0
 532 86 411 -10 276 -10 c 0
 141 -10 56 86 81 230 c 0
 104 359 213 453 317 453 c 0
 400 453 417 430 456 402 c 1
 482 387 522 405 538 375 c 0
 558 338 567 287 557 230 c 0
476 230 m 0
 493 326 438 395 348 395 c 0
 258 395 179 326 162 230 c 0
 145 134 200 67 290 67 c 0
 380 67 459 134 476 230 c 0
EndSplineSet
Refer: 62 45 S 1.5 0 0 1 147.5 320 2
EndChar
